<?xml version="1.0" encoding="utf-8"?>
<!-- Generator: Adobe Illustrator 19.1.0, SVG Export Plug-In . SVG Version: 6.00 Build 0)  -->
<svg version="1.1" id="Layer_1" xmlns="http://www.w3.org/2000/svg" xmlns:xlink="http://www.w3.org/1999/xlink" x="0px" y="0px"
	 width="670.9px" height="90.2px" viewBox="0 0 670.9 90.2" style="enable-background:new 0 0 670.9 90.2;" xml:space="preserve">
<g>
	<g>
		<path d="M102.9,3.6h20l17.6,57.6l19.1-57.8h16l19.1,57.8l17.6-57.6H232l-29,85.7h-16.3l-19.2-55.6
			l-19.2,55.6H132L102.9,3.6z"/>
		<path d="M219.6,56.5v-0.2c0-18.6,13.2-33.9,32.2-33.9c21.7,0,31.7,16.9,31.7,35.4c0,1.5-0.1,3.2-0.2,4.9
			h-45.3c1.8,8.4,7.7,12.8,15.9,12.8c6.2,0,10.7-1.9,15.8-6.7l10.6,9.4c-6.1,7.5-14.8,12.2-26.6,12.2
			C234,90.2,219.6,76.4,219.6,56.5z M265.5,51c-1.1-8.3-6-13.9-13.7-13.9c-7.7,0-12.6,5.5-14.1,13.9H265.5z"/>
		<path d="M305,80.2v8.5h-18.5V0H305v32.9c4.5-6.1,10.7-10.6,20.3-10.6c15.2,0,29.6,11.9,29.6,33.7v0.2
			c0,21.7-14.2,33.7-29.6,33.7C315.4,89.9,309.4,85.4,305,80.2z M336.5,56.3V56c0-10.8-7.3-18-15.9-18s-15.8,7.2-15.8,18v0.2
			c0,10.8,7.2,18,15.8,18S336.5,67.2,336.5,56.3z"/>
		<path d="M352.5,76.3l11.1-13.2c7.7,6.3,15.7,10.3,25.4,10.3c7.7,0,12.3-3,12.3-8v-0.2
			c0-4.7-2.9-7.2-17.1-10.8c-17.1-4.4-28.2-9.1-28.2-26v-0.2c0-15.4,12.4-25.6,29.8-25.6c12.4,0,23,3.9,31.6,10.8l-9.7,14.1
			c-7.5-5.2-14.9-8.4-22.1-8.4c-7.2,0-10.9,3.3-10.9,7.4v0.2c0,5.6,3.6,7.4,18.3,11.2c17.3,4.5,27,10.7,27,25.5v0.2
			c0,16.9-12.9,26.4-31.2,26.4C375.7,89.9,362.7,85.4,352.5,76.3z"/>
		<path d="M424.4,70.2V39.4h-7.8V23.6h7.8V6.9h18.5v16.6h15.3v15.8h-15.3v27.8c0,4.3,1.8,6.3,6,6.3
			c3.4,0,6.4-0.9,9.1-2.3V86c-3.9,2.3-8.4,3.8-14.6,3.8C432.1,89.8,424.4,85.3,424.4,70.2z"/>
		<path d="M457,56.5v-0.2c0-18.7,15.1-33.9,35.4-33.9c20.2,0,35.1,14.9,35.1,33.7v0.2
			c0,18.7-15.1,33.9-35.4,33.9C471.9,90.2,457,75.2,457,56.5z M509.2,56.5v-0.2c0-9.6-6.9-18-17.1-18c-10.6,0-16.9,8.1-16.9,17.7
			v0.2c0,9.6,6.9,18,17.1,18C502.9,74.2,509.2,66.1,509.2,56.5z"/>
		<path d="M529.9,23.6h18.5v13.1c3.8-9,9.8-14.8,20.8-14.3v19.3h-1c-12.3,0-19.8,7.4-19.8,23v24.1h-18.5V23.6
			z"/>
		<path d="M571.5,23.6H590v9.2c4.3-5.5,9.8-10.4,19.2-10.4c8.5,0,14.9,3.8,18.3,10.3
			c5.7-6.7,12.5-10.3,21.4-10.3c13.7,0,22,8.3,22,23.9v42.4h-18.5V52.4c0-8.7-3.9-13.2-10.8-13.2s-11.2,4.5-11.2,13.2v36.3H612V52.4
			c0-8.7-3.9-13.2-10.8-13.2S590,43.6,590,52.4v36.3h-18.5V23.6z"/>
	</g>
	<g>
		<rect y="4.4" style="fill:#000000;" width="85" height="85"/>
		<path style="fill:#FFFFFF;" d="M33.7,33.2l2.7-3.3c1.9,1.6,3.8,2.6,6.2,2.6c1.9,0,3-0.8,3-2v-0.1c0-1.2-0.7-1.8-4.2-2.7
			c-4.2-1.1-6.9-2.3-6.9-6.5v-0.1c0-3.9,3-6.4,7.3-6.4c3,0,5.6,1,7.8,2.7l-2.4,3.5c-1.8-1.3-3.7-2.1-5.4-2.1c-1.8,0-2.7,0.8-2.7,1.9
			v0.1c0,1.4,0.9,1.9,4.5,2.8c4.2,1.1,6.6,2.7,6.6,6.4V30c0,4.2-3.2,6.6-7.7,6.6C39.4,36.6,36.2,35.5,33.7,33.2"/>
		<polygon style="fill:#FFFFFF;" points="29.5,15 26.4,27.4 22.8,15 19.2,15 15.6,27.4 12.4,15 7.5,15 13.5,36.3 17.5,36.3 21,24 
			24.4,36.3 28.4,36.3 34.5,15 		"/>
		<rect x="8" y="73.5" style="fill:#FFFFFF;" width="31.9" height="5.3"/>
	</g>
</g>
</svg>
